<svg width="80" height="80" viewBox="0 0 80 80" fill="none" xmlns="http://www.w3.org/2000/svg">
<path opacity="0.3" d="M80 40C80 62.0914 62.0914 80 40 80C17.9086 80 0 62.0914 0 40C0 17.9086 17.9086 0 40 0C62.0914 0 80 17.9086 80 40ZM10.9071 40C10.9071 56.0675 23.9325 69.0929 40 69.0929C56.0675 69.0929 69.0929 56.0675 69.0929 40C69.0929 23.9325 56.0675 10.9071 40 10.9071C23.9325 10.9071 10.9071 23.9325 10.9071 40Z" fill="#2F2E30"/>
<circle cx="40" cy="40" r="29" fill="black"/>
<path d="M31.6667 31.6667V28.3334C31.6668 27.3682 31.9462 26.4236 32.4712 25.6137C32.9962 24.8038 33.7444 24.1632 34.6256 23.7691C35.5067 23.3751 36.483 23.2445 37.4367 23.3931C38.3904 23.5418 39.2807 23.9633 40.0001 24.6067C40.7195 23.9633 41.6098 23.5418 42.5635 23.3931C43.5172 23.2445 44.4935 23.3751 45.3746 23.7691C46.2557 24.1632 47.0039 24.8038 47.529 25.6137C48.054 26.4236 48.3334 27.3682 48.3334 28.3334V31.6667H50.8334C51.4965 31.6667 52.1323 31.9301 52.6012 32.399C53.07 32.8678 53.3334 33.5037 53.3334 34.1667V50.8417C53.3334 52.3866 52.7197 53.8682 51.6273 54.9606C50.5349 56.053 49.0533 56.6667 47.5084 56.6667H33.3334C31.5653 56.6667 29.8696 55.9643 28.6194 54.7141C27.3691 53.4639 26.6667 51.7682 26.6667 50.0001V34.1667C26.6667 33.5037 26.9301 32.8678 27.399 32.399C27.8678 31.9301 28.5037 31.6667 29.1667 31.6667H31.6667ZM42.7251 54.1667C42.0452 53.1914 41.6815 52.0306 41.6834 50.8417V34.1667H29.1667V50.0001C29.1667 50.5472 29.2745 51.089 29.4839 51.5946C29.6933 52.1001 30.0002 52.5594 30.3871 52.9463C30.774 53.3332 31.2334 53.6402 31.7389 53.8496C32.2444 54.0589 32.7862 54.1667 33.3334 54.1667H42.7251ZM39.1667 31.6667V28.3334C39.1667 27.6703 38.9034 27.0345 38.4345 26.5656C37.9657 26.0968 37.3298 25.8334 36.6667 25.8334C36.0037 25.8334 35.3678 26.0968 34.899 26.5656C34.4301 27.0345 34.1667 27.6703 34.1667 28.3334V31.6667H39.1667ZM41.6667 31.6667H45.8334V28.3334C45.8335 27.8188 45.6747 27.3167 45.3788 26.8957C45.0829 26.4746 44.6643 26.1552 44.1801 25.9809C43.6959 25.8066 43.1697 25.786 42.6734 25.9219C42.177 26.0577 41.7347 26.3435 41.4067 26.7401C41.5751 27.2401 41.6667 27.7767 41.6667 28.3334V31.6667ZM44.1834 50.8417C44.1834 51.7236 44.5337 52.5693 45.1573 53.1929C45.7808 53.8164 46.6266 54.1667 47.5084 54.1667C48.3903 54.1667 49.236 53.8164 49.8595 53.1929C50.4831 52.5693 50.8334 51.7236 50.8334 50.8417V34.1667H44.1834V50.8417Z" fill="white"/>
</svg>
